<svg version="1.1" xmlns="http://www.w3.org/2000/svg" xmlns:xlink="http://www.w3.org/1999/xlink" width="111.30285" height="92.12775" viewBox="0,0,111.30285,92.12775"><g transform="translate(-184.63698,-100.69541)"><g data-paper-data="{&quot;isPaintingLayer&quot;:true}" fill-rule="nonzero" stroke="#000000" stroke-width="2" stroke-linejoin="miter" stroke-miterlimit="10" stroke-dasharray="" stroke-dashoffset="0" style="mix-blend-mode: normal"><path d="M259.53942,169.02887l29.23836,-43.17441l5.77332,3.90978l-29.23836,43.1744z" data-paper-data="{&quot;index&quot;:null}" fill="#ba8141" stroke-linecap="butt"/><path d="M215.26407,173.69865l-29.23837,-43.1744l5.77332,-3.90978l29.23836,43.17441z" fill="#ba8141" stroke-linecap="butt"/><path d="M204.68209,191.82316v-37.28843h70.63582v37.28843z" fill="#ba8141" stroke-linecap="butt"/><path d="M239.75893,139.24287" fill="none" stroke-linecap="round"/><path d="M266.70951,117.58152c-4.30585,11.93759 -28.54495,34.09083 -28.54495,34.09083c0,0 -23.57743,-22.74082 -26.58759,-34.09083c-1.3476,-5.08123 5.78869,-15.66662 11.28479,-15.88611c14.024,-0.56005 16.6077,12.78695 16.6077,12.78695c0,0 2.15912,-13.46699 14.1626,-13.50056c7.943,-0.02222 15.40102,10.1578 13.07744,16.59973z" fill="#ff4a4a" stroke-linecap="butt"/></g></g></svg>